<?xml version="1.0" encoding="UTF-8"?>
<svg id="Layer_1" xmlns="http://www.w3.org/2000/svg" version="1.1" viewBox="0 0 500 111.15">
  <!-- Generator: Adobe Illustrator 29.5.1, SVG Export Plug-In . SVG Version: 2.1.0 Build 141)  -->
  <defs>
    <style>
      .st0 {
        fill: #121827;
      }

      .st1 {
        fill: #41d3d5;
      }
    </style>
  </defs>
  <path class="st0" d="M54.32,78.36c-3.42,0-6.46-.55-9.12-1.66s-4.72-2.93-6.17-5.46c-1.46-2.53-2.18-5.98-2.18-10.35v-18.52h-8.17v-11.87h8.17l1.52-13.48h12.72v13.48h12.25v11.87h-12.25v18.71c0,1.9.43,3.24,1.28,4.04.85.79,2.33,1.19,4.42,1.19h6.55v12.06h-9.02Z"/>
  <path class="st0" d="M74.26,78.36V10h14.24v27.35c1.52-2.4,3.58-4.34,6.17-5.79,2.59-1.46,5.63-2.18,9.12-2.18,4.05,0,7.44.85,10.16,2.56,2.72,1.71,4.78,4.19,6.17,7.45s2.09,7.2,2.09,11.82v27.16h-14.15v-25.83c0-3.54-.74-6.3-2.23-8.26-1.49-1.96-3.85-2.94-7.07-2.94-1.9,0-3.64.47-5.22,1.42-1.58.95-2.82,2.3-3.7,4.04-.89,1.74-1.33,3.81-1.33,6.22v25.35h-14.25,0Z"/>
  <path class="st0" d="M150.41,79.5c-3.99,0-7.3-.63-9.92-1.9-2.63-1.27-4.56-2.99-5.79-5.18-1.23-2.18-1.85-4.61-1.85-7.26,0-2.85.71-5.36,2.14-7.55s3.66-3.92,6.69-5.22c3.04-1.3,6.87-1.95,11.49-1.95h11.58c0-2.15-.27-3.92-.81-5.32-.54-1.39-1.41-2.44-2.61-3.13-1.2-.7-2.85-1.04-4.94-1.04-2.22,0-4.08.44-5.6,1.33-1.52.89-2.47,2.28-2.85,4.18h-13.67c.32-3.42,1.44-6.39,3.37-8.93,1.93-2.53,4.51-4.53,7.74-5.98,3.23-1.46,6.93-2.18,11.11-2.18,4.56,0,8.51.74,11.87,2.23,3.35,1.49,5.97,3.66,7.83,6.5,1.87,2.85,2.8,6.39,2.8,10.63v29.63h-11.87l-1.71-6.93c-.7,1.2-1.52,2.3-2.47,3.28-.95.98-2.06,1.84-3.32,2.56-1.27.73-2.66,1.28-4.18,1.66-1.52.38-3.2.57-5.03.57ZM153.92,68.68c1.52,0,2.85-.25,3.99-.76s2.12-1.2,2.94-2.09,1.5-1.91,2.04-3.09c.54-1.17.93-2.45,1.19-3.85v-.1h-9.21c-1.58,0-2.9.21-3.94.62-1.04.41-1.82,1-2.33,1.76s-.76,1.65-.76,2.66c0,1.08.27,1.98.81,2.71.54.73,1.27,1.27,2.18,1.61.92.35,1.95.52,3.09.52h0Z"/>
  <path class="st0" d="M354.63,32.5c-3.61-2.09-7.82-3.13-12.63-3.13s-9.27,1.11-13.01,3.32c-3.74,2.22-6.65,5.26-8.74,9.12s-3.13,8.26-3.13,13.2,1.06,9.07,3.18,12.77,5.05,6.58,8.78,8.64,8.07,3.09,13.01,3.09c3.73,0,7.15-.71,10.26-2.14,3.1-1.42,5.73-3.35,7.88-5.79s3.67-5.17,4.56-8.21h-14.53c-.76,1.33-1.82,2.42-3.18,3.28-1.36.85-3.09,1.28-5.18,1.28-2.22,0-4.13-.47-5.74-1.42s-2.85-2.28-3.7-3.99c-.68-1.36-1.08-2.88-1.22-4.56h34.69c.13-.82.2-1.63.24-2.42.03-.79.05-1.5.05-2.14,0-4.68-1.03-8.81-3.09-12.39-2.06-3.58-4.89-6.41-8.5-8.5h0ZM331.56,49.69c.25-1.16.6-2.21,1.08-3.13.98-1.9,2.29-3.32,3.94-4.27s3.48-1.42,5.51-1.42c2.66,0,4.89.81,6.69,2.42s2.77,3.75,2.9,6.41h-20.12Z"/>
  <polygon class="st0" points="398.59 59.66 385.39 30.51 369.91 30.51 389.19 73.05 392.04 73.05 380.55 99.25 395.65 99.25 424.89 30.51 409.6 30.51 398.59 59.66"/>
  <path class="st0" d="M469.24,55.72c-1.58-1.8-3.78-3.18-6.6-4.13s-6.16-1.84-10.02-2.66c-2.03-.44-3.74-.89-5.13-1.33-1.39-.44-2.45-.96-3.18-1.57-.73-.6-1.09-1.28-1.09-2.04,0-1.14.54-2.06,1.61-2.75,1.08-.7,2.66-1.04,4.75-1.04,1.84,0,3.35.33,4.56,1,1.2.66,1.99,1.63,2.37,2.9h13.29c-.63-4.49-2.66-8.07-6.08-10.73s-8.14-3.99-14.15-3.99c-4.24,0-7.85.68-10.83,2.04-2.98,1.36-5.25,3.2-6.84,5.51-1.58,2.31-2.37,4.89-2.37,7.74,0,2.34.52,4.32,1.57,5.93,1.04,1.61,2.44,2.93,4.18,3.94s3.73,1.85,5.98,2.52c2.25.66,4.51,1.25,6.79,1.76,1.96.38,3.64.78,5.03,1.19,1.39.41,2.45.93,3.18,1.57.73.63,1.09,1.55,1.09,2.75,0,.76-.25,1.49-.76,2.18-.51.7-1.25,1.25-2.23,1.66s-2.26.62-3.85.62c-1.46,0-2.77-.24-3.94-.71-1.17-.48-2.09-1.14-2.75-1.99s-1.12-1.82-1.38-2.9h-14.15c.25,3.1,1.31,5.89,3.18,8.36s4.43,4.42,7.69,5.84,7.14,2.14,11.63,2.14,8.01-.68,11.11-2.04c3.1-1.36,5.49-3.24,7.17-5.65,1.68-2.41,2.48-5.16,2.42-8.26.06-3.42-.7-6.03-2.28-7.83l.03-.03h0Z"/>
  <polygon class="st0" points="293.47 52.56 312.28 30.51 295.47 30.51 279.99 49.58 279.99 10 265.75 10 265.75 29.18 267.32 30.51 270.03 34.39 271.81 38.71 272.59 43.9 272.25 47.88 271.04 51.95 268.44 56.56 265.75 59.33 265.75 78.36 279.99 78.36 279.99 54.93 297.65 78.36 315.31 78.36 293.47 52.56"/>
  <path class="st0" d="M198.17,25c2.59,0,4.7-.73,6.31-2.18,1.61-1.46,2.42-3.29,2.42-5.51s-.81-4.15-2.42-5.6c-1.61-1.46-3.72-2.18-6.31-2.18s-4.59.73-6.17,2.18c-1.58,1.46-2.37,3.32-2.37,5.6s.79,4.05,2.37,5.51,3.64,2.18,6.17,2.18Z"/>
  <polygon class="st0" points="201.5 65.57 205.29 65.15 205.29 30.51 191.05 30.51 191.05 78.36 194.75 78.36 194.12 75.96 196.13 73.13 203.05 72.34 203.14 72.19 201.5 65.57"/>
  <g>
    <path class="st1" d="M232.66,59.43s-.19.01-.19.01c-.77.1-1.55.15-2.33.15-.87,0-1.75-.06-2.62-.18l-.15-.02h-.13c-.54,0-1.06.26-1.37.71l-17.68,24.88-9.75.78-2.48-9.48,1.11-1.57,6.11-.7c.5-.03.98-.3,1.26-.72.28-.41.38-.9.26-1.35l-1.12-4.92,5.05-.58c.48-.06.91-.32,1.18-.71.28-.41.38-.9.26-1.34l-1.36-6.06,4.94-6.94c.37-.52.42-1.2.12-1.76-3.19-6.15-2.68-13.48,1.33-19.12,3.46-4.87,9.06-7.77,14.97-7.77,1.51,0,3.03.19,4.53.56.13.03.26.04.39.04.77,0,1.45-.52,1.65-1.27.12-.45.05-.91-.19-1.31-.23-.38-.6-.65-1.04-.77-1.75-.44-3.55-.66-5.33-.66-7.01,0-13.64,3.44-17.73,9.2-4.51,6.36-5.28,14.65-2.04,21.71l-4.8,6.75c-.28.41-.37.9-.26,1.34l1.11,4.95-4.98.57c-.5.03-.97.3-1.26.72-.28.41-.38.9-.26,1.35l1.12,4.92-5.06.58c-.48.07-.9.32-1.16.7l-2.01,2.83c-.29.41-.39.92-.27,1.42l3.03,11.6c.18.76.86,1.29,1.64,1.29h.58s.56-.06.56-.06v-.03l11-.89c.48-.06.92-.32,1.2-.71l17.56-24.71c.69.07,1.38.1,2.08.1.92,0,1.85-.06,2.77-.17.45-.06.85-.29,1.12-.64.28-.36.4-.81.34-1.26-.11-.85-.83-1.48-1.71-1.48Z"/>
    <path class="st1" d="M253.43,32.72c-.14,0-.28-.01-.42-.01-3.29,0-6.05,2.57-6.28,5.86-.11,1.67.44,3.29,1.53,4.56,1.09,1.26,2.62,2.03,4.29,2.15.15.01.3.01.46.01,3.29,0,6.04-2.57,6.27-5.85.12-1.67-.43-3.29-1.53-4.56-1.1-1.27-2.64-2.03-4.31-2.15ZM252.73,36.1h.49c1.58.12,2.77,1.5,2.67,3.09-.1,1.51-1.37,2.69-2.89,2.69-.07,0-.13,0-.2,0-1.59-.11-2.79-1.5-2.68-3.09.1-1.42,1.25-2.58,2.62-2.69Z"/>
    <path class="st1" d="M265.47,26.71c-.29-.21-.64-.32-1-.32-.54,0-1.04.25-1.38.7-.54.76-.39,1.79.36,2.36,5.06,3.77,7.82,9.77,7.39,16.06-.48,6.91-4.75,12.9-11.16,15.65-.58.28-.96.83-.98,1.43l-2.11,30.43-7.91,5.78-7.04-6.82.13-1.92,4.81-3.77c.41-.28.68-.75.71-1.26.03-.49-.15-.96-.48-1.29l-3.52-3.63,3.93-3.08c.41-.29.67-.75.7-1.26.03-.49-.15-.96-.48-1.29l-4.3-4.44.59-8.52c.03-.63-.28-1.22-.81-1.54-5.94-3.6-9.33-10.12-8.85-17.02.34-4.9,2.57-9.38,6.28-12.61,3.36-2.92,7.64-4.52,12.04-4.52.44,0,.88.02,1.32.05,1.12.08,1.68.13,2.33.28-.19.85-.48,1.66-.85,2.44-.19.43-.2.9-.03,1.33.13.32.36.61.65.79.27.18.58.27.92.28.66,0,1.27-.39,1.55-1,.18-.39.34-.78.5-1.18.15-.4.28-.81.39-1.22.12-.41.21-.83.29-1.25.08-.42.14-.84.18-1.26.04-.42.07-.85.07-1.28,0-.43,0-.86-.03-1.29s-.08-.86-.14-1.28c-1.12-7.36-7.58-12.91-15.03-12.91-.76,0-1.53.06-2.28.17-3.22.48-6.14,1.96-8.45,4.27-.32.32-.5.75-.5,1.2s.18.88.5,1.2.75.5,1.2.5.88-.18,1.2-.5c1.78-1.79,4.05-2.94,6.56-3.32.59-.09,1.2-.14,1.79-.14,5.78,0,10.79,4.31,11.66,10.03.05.33.09.66.11,1-.69-.13-1.35-.19-2.36-.26-.51-.04-1.02-.05-1.53-.05-5.24,0-10.31,1.9-14.29,5.36-4.4,3.84-7.04,9.14-7.44,14.95-.54,7.77,3.13,15.25,9.58,19.6l-.57,8.25v.11c0,.11.02.19.04.25.01.09.03.22.08.36l.07.15.03.05c.04.09.1.21.2.32l.08.08h.02s3.47,3.6,3.47,3.6l-3.97,3.1-.07.06-.03.02-.06.06c-.08.08-.12.15-.13.18-.05.07-.13.16-.19.29-.04.09-.07.18-.1.29-.02.04-.05.13-.07.24v.04s0,.05,0,.05v.04s-.01.08-.01.08c0,.11.02.19.04.27.01.09.03.17.05.25.04.14.11.25.15.3l.06.13s.08.11.11.13l.02.04,3.57,3.69-3.96,3.09-.09.07-.02.03c-.09.09-.16.18-.23.27-.05.06-.09.11-.12.17-.08.15-.12.29-.13.38-.02.04-.05.11-.06.2v.02s-.25,3.55-.25,3.55c-.03.48.15.96.51,1.32l8.62,8.35c.32.32.74.49,1.19.49h.01c.35,0,.69-.11,1-.33l9.72-7.1c.4-.31.64-.76.67-1.24l2.1-30.22c7-3.41,11.67-10.31,12.21-18.09.52-7.44-2.76-14.55-8.77-19.03Z"/>
  </g>
</svg>