<svg xmlns="http://www.w3.org/2000/svg" viewBox="0 0 442.8133 94.38"><g id="Layer_2" data-name="Layer 2"><g id="Layer_1-2" data-name="Layer 1"><path d="M25.64,70.03a23.5074,23.5074,0,0,1-9.12-1.66,12.48,12.48,0,0,1-6.17-5.46Q8.16,59.115,8.17,52.56V34.04H0V22.17H8.17L9.69,8.69H22.41V22.17H34.66V34.04H22.41V52.75c0,1.9.43,3.24,1.28,4.04.85.79,2.33,1.19,4.42,1.19h6.55V70.04H25.64Z" style="fill:#121827"/><path d="M45.58,70.03V1.67H59.82V29.02a17.0126,17.0126,0,0,1,6.17-5.79,18.2629,18.2629,0,0,1,9.12-2.18,18.755,18.755,0,0,1,10.16,2.56,15.8615,15.8615,0,0,1,6.17,7.45,30.0759,30.0759,0,0,1,2.09,11.82V70.04H79.38V44.21c0-3.54-.74-6.3-2.23-8.26s-3.85-2.94-7.07-2.94a9.9352,9.9352,0,0,0-5.22,1.42,9.7242,9.7242,0,0,0-3.7,4.04,13.4964,13.4964,0,0,0-1.33,6.22V70.04H45.58Z" style="fill:#121827"/><path d="M121.73,71.17a22.7278,22.7278,0,0,1-9.92-1.9,12.709,12.709,0,0,1-5.79-5.18,14.5467,14.5467,0,0,1-1.85-7.26,13.479,13.479,0,0,1,2.14-7.55A14.4982,14.4982,0,0,1,113,44.06a29.36,29.36,0,0,1,11.49-1.95h11.58a14.9224,14.9224,0,0,0-.81-5.32,5.9727,5.9727,0,0,0-2.61-3.13,9.8357,9.8357,0,0,0-4.94-1.04,10.8986,10.8986,0,0,0-5.6,1.33,5.926,5.926,0,0,0-2.85,4.18H105.59a17.047,17.047,0,0,1,3.37-8.93,19.6277,19.6277,0,0,1,7.74-5.98,26.7021,26.7021,0,0,1,11.11-2.18,29.0675,29.0675,0,0,1,11.87,2.23,17.7086,17.7086,0,0,1,7.83,6.5,18.97,18.97,0,0,1,2.8,10.63V70.03H138.44l-1.71-6.93a16.9864,16.9864,0,0,1-2.47,3.28,14.8954,14.8954,0,0,1-3.32,2.56,16.2213,16.2213,0,0,1-4.18,1.66A20.7539,20.7539,0,0,1,121.73,71.17Zm3.51-10.82a9.695,9.695,0,0,0,3.99-.76,8.8521,8.8521,0,0,0,2.94-2.09,11.6852,11.6852,0,0,0,2.04-3.09,16.1894,16.1894,0,0,0,1.19-3.85v-.1h-9.21a10.8533,10.8533,0,0,0-3.94.62,4.8458,4.8458,0,0,0-2.33,1.76,4.6648,4.6648,0,0,0-.76,2.66,4.4242,4.4242,0,0,0,.81,2.71,4.6872,4.6872,0,0,0,2.18,1.61,8.6347,8.6347,0,0,0,3.09.52h0Z" style="fill:#121827"/><path d="M325.95,24.17a24.7554,24.7554,0,0,0-12.63-3.13,25.41,25.41,0,0,0-13.01,3.32,23.3024,23.3024,0,0,0-8.74,9.12,27.2754,27.2754,0,0,0-3.13,13.2,24.9,24.9,0,0,0,3.18,12.77,22.4392,22.4392,0,0,0,8.78,8.64,26.4866,26.4866,0,0,0,13.01,3.09,24.2616,24.2616,0,0,0,10.26-2.14,23.2776,23.2776,0,0,0,7.88-5.79,21.3677,21.3677,0,0,0,4.56-8.21H321.58a9.3194,9.3194,0,0,1-3.18,3.28,9.6291,9.6291,0,0,1-5.18,1.28,11.0835,11.0835,0,0,1-5.74-1.42,9.3914,9.3914,0,0,1-3.7-3.99,12.3942,12.3942,0,0,1-1.22-4.56h34.69a22.7767,22.7767,0,0,0,.24-2.42c.03-.79.05-1.5.05-2.14a24.3963,24.3963,0,0,0-3.09-12.39,22.81,22.81,0,0,0-8.5-8.5h0ZM302.88,41.36a12.3994,12.3994,0,0,1,1.08-3.13,10.1033,10.1033,0,0,1,3.94-4.27,10.8223,10.8223,0,0,1,5.51-1.42,9.671,9.671,0,0,1,6.69,2.42,8.8026,8.8026,0,0,1,2.9,6.41H302.88Z" style="fill:#121827"/><polygon points="369.91 51.33 356.71 22.18 341.23 22.18 360.51 64.72 363.36 64.72 351.87 90.92 366.97 90.92 396.21 22.18 380.92 22.18 369.91 51.33" style="fill:#121827"/><path d="M440.56,47.39a14.8707,14.8707,0,0,0-6.6-4.13,90.9,90.9,0,0,0-10.02-2.66c-2.03-.44-3.74-.89-5.13-1.33a9.4022,9.4022,0,0,1-3.18-1.57,2.6045,2.6045,0,0,1-1.09-2.04,3.154,3.154,0,0,1,1.61-2.75,8.7872,8.7872,0,0,1,4.75-1.04,9.2994,9.2994,0,0,1,4.56,1,4.7708,4.7708,0,0,1,2.37,2.9h13.29a15.849,15.849,0,0,0-6.08-10.73q-5.13-3.99-14.15-3.99a25.9707,25.9707,0,0,0-10.83,2.04,16.23,16.23,0,0,0-6.84,5.51,13.4,13.4,0,0,0-2.37,7.74,10.6334,10.6334,0,0,0,1.57,5.93,12.1675,12.1675,0,0,0,4.18,3.94,27.5042,27.5042,0,0,0,5.98,2.52q3.375.99,6.79,1.76c1.96.38,3.64.78,5.03,1.19a8.4152,8.4152,0,0,1,3.18,1.57A3.4356,3.4356,0,0,1,428.67,56a3.6118,3.6118,0,0,1-.76,2.18,5.1008,5.1008,0,0,1-2.23,1.66,10.0905,10.0905,0,0,1-3.85.62,10.4763,10.4763,0,0,1-3.94-.71,6.5156,6.5156,0,0,1-2.75-1.99,7.56,7.56,0,0,1-1.38-2.9H399.61a15.6683,15.6683,0,0,0,3.18,8.36,18.8253,18.8253,0,0,0,7.69,5.84,28.9888,28.9888,0,0,0,11.63,2.14,26.9243,26.9243,0,0,0,11.11-2.04,16.6014,16.6014,0,0,0,7.17-5.65,13.5962,13.5962,0,0,0,2.42-8.26q.09-5.13-2.28-7.83l.03-.03Z" style="fill:#121827"/><polygon points="264.79 44.23 283.6 22.18 266.79 22.18 251.31 41.25 251.31 1.67 237.07 1.67 237.07 20.85 238.64 22.18 241.35 26.06 243.13 30.38 243.91 35.57 243.57 39.55 242.36 43.62 239.76 48.23 237.07 51 237.07 70.03 251.31 70.03 251.31 46.6 268.97 70.03 286.63 70.03 264.79 44.23" style="fill:#121827"/><path d="M169.49,16.67a9.0837,9.0837,0,0,0,6.31-2.18,7.1167,7.1167,0,0,0,2.42-5.51,7.29,7.29,0,0,0-2.42-5.6,9.0371,9.0371,0,0,0-6.31-2.18,8.6754,8.6754,0,0,0-6.17,2.18,7.2763,7.2763,0,0,0-2.37,5.6,7.0859,7.0859,0,0,0,2.37,5.51A8.7309,8.7309,0,0,0,169.49,16.67Z" style="fill:#121827"/><polygon points="172.82 57.24 176.61 56.82 176.61 22.18 162.37 22.18 162.37 70.03 166.07 70.03 165.44 67.63 167.45 64.8 174.37 64.01 174.46 63.86 172.82 57.24" style="fill:#121827"/><path d="M203.98,51.1l-.19.01a18.1113,18.1113,0,0,1-2.33.15,19.2253,19.2253,0,0,1-2.62-.18l-.15-.02h-.13a1.6652,1.6652,0,0,0-1.37.71L179.51,76.65l-9.75.78-2.48-9.48,1.11-1.57,6.11-.7a1.6924,1.6924,0,0,0,1.52-2.07l-1.12-4.92,5.05-.58a1.69,1.69,0,0,0,1.18-.71,1.6327,1.6327,0,0,0,.26-1.34L180.03,50l4.94-6.94a1.6714,1.6714,0,0,0,.12-1.76,18.4219,18.4219,0,0,1,16.3-26.89,18.9182,18.9182,0,0,1,4.53.56,1.7322,1.7322,0,0,0,2.04-1.23,1.6752,1.6752,0,0,0-.19-1.31,1.7341,1.7341,0,0,0-1.04-.77,21.8094,21.8094,0,0,0-25.1,30.25l-4.8,6.75a1.67,1.67,0,0,0-.26,1.34l1.11,4.95-4.98.57a1.6683,1.6683,0,0,0-1.26.72,1.6482,1.6482,0,0,0-.26,1.35l1.12,4.92-5.06.58a1.6848,1.6848,0,0,0-1.16.7l-2.01,2.83a1.7384,1.7384,0,0,0-.27,1.42l3.03,11.6a1.68,1.68,0,0,0,1.64,1.29h.58l.56-.06v-.03l11-.89a1.7518,1.7518,0,0,0,1.2-.71l17.56-24.71a20.5454,20.5454,0,0,0,2.08.1,23.4032,23.4032,0,0,0,2.77-.17,1.6975,1.6975,0,0,0-.25-3.38Z" style="fill:#41d3d5"/><path d="M224.75,24.39c-.14,0-.28-.01-.42-.01a6.2909,6.2909,0,0,0-4.75,10.42,6.2408,6.2408,0,0,0,4.29,2.15c.15.01.3.01.46.01a6.2876,6.2876,0,0,0,.43-12.56Zm-.7,3.38h.49a2.8941,2.8941,0,0,1-.22,5.78h-.2a2.9,2.9,0,0,1-.06-5.78Z" style="fill:#41d3d5"/><path d="M236.79,18.38a1.7021,1.7021,0,0,0-2.02,2.74A18.3994,18.3994,0,0,1,231,52.83a1.6782,1.6782,0,0,0-.98,1.43l-2.11,30.43L220,90.47l-7.04-6.82.13-1.92,4.81-3.77a1.6536,1.6536,0,0,0,.71-1.26,1.68,1.68,0,0,0-.48-1.29l-3.52-3.63,3.93-3.08a1.66,1.66,0,0,0,.7-1.26,1.68,1.68,0,0,0-.48-1.29l-4.3-4.44.59-8.52a1.697,1.697,0,0,0-.81-1.54,18.3988,18.3988,0,0,1,9.47-34.15c.44,0,.88.02,1.32.05a14.33,14.33,0,0,1,2.33.28,11.566,11.566,0,0,1-.85,2.44,1.7066,1.7066,0,0,0-.03,1.33,1.6815,1.6815,0,0,0,.65.79,1.6853,1.6853,0,0,0,2.47-.72c.18-.39.34-.78.5-1.18.15-.4.28-.81.39-1.22.12-.41.21-.83.29-1.25s.14-.84.18-1.26.07-.85.07-1.28,0-.86-.03-1.29-.08-.86-.14-1.28A15.3,15.3,0,0,0,215.83,0a15.798,15.798,0,0,0-2.28.17,15.0028,15.0028,0,0,0-8.45,4.27,1.6971,1.6971,0,1,0,2.4,2.4,11.6466,11.6466,0,0,1,6.56-3.32,11.7692,11.7692,0,0,1,13.45,9.89c.05.33.09.66.11,1a19.6721,19.6721,0,0,0-2.36-.26c-.51-.04-1.02-.05-1.53-.05a21.8143,21.8143,0,0,0-12.15,39.91l-.57,8.25v.11a.7637.7637,0,0,0,.04.25,1.5855,1.5855,0,0,0,.08.36l.07.15.03.05a1.175,1.175,0,0,0,.2.32l.08.08h.02l3.47,3.6-3.97,3.1-.07.06-.03.02-.06.06a.5588.5588,0,0,0-.13.18,1.61,1.61,0,0,0-.19.29,1.9636,1.9636,0,0,0-.1.29,1.0237,1.0237,0,0,0-.07.24v.13l-.01.08a1.026,1.026,0,0,0,.04.27,1.8425,1.8425,0,0,0,.05.25.91.91,0,0,0,.15.3l.06.13a.9478.9478,0,0,0,.11.13l.02.04,3.57,3.69-3.96,3.09-.09.07-.02.03a2.7551,2.7551,0,0,0-.23.27.8849.8849,0,0,0-.12.17,1.1348,1.1348,0,0,0-.13.38.5958.5958,0,0,0-.06.2v.02l-.25,3.55a1.7159,1.7159,0,0,0,.51,1.32l8.62,8.35a1.6631,1.6631,0,0,0,1.19.49h.01a1.71,1.71,0,0,0,1-.33l9.72-7.1a1.7055,1.7055,0,0,0,.67-1.24l2.1-30.22a21.8006,21.8006,0,0,0,3.44-37.12Z" style="fill:#41d3d5"/></g></g></svg>