<svg xmlns="http://www.w3.org/2000/svg" viewBox="0 0 804.8952 94.38"><g id="Layer_2" data-name="Layer 2"><g id="Layer_1-2" data-name="Layer 1"><path d="M25.64,80.5134a23.5089,23.5089,0,0,1-9.12-1.66,12.4807,12.4807,0,0,1-6.17-5.46q-2.19-3.795-2.18-10.35v-18.52H0v-11.87H8.17l1.52-13.48H22.41v13.48H34.66v11.87H22.41v18.71c0,1.9.43,3.24,1.28,4.04.85.79,2.33,1.19,4.42,1.19h6.55v12.06H25.64Z" transform="translate(0 -10.4834)" style="fill:#121827"/><path d="M45.58,80.5134v-68.36H59.82v27.35a17.012,17.012,0,0,1,6.17-5.79,18.2627,18.2627,0,0,1,9.12-2.18,18.7549,18.7549,0,0,1,10.16,2.56,15.8614,15.8614,0,0,1,6.17,7.45,30.0764,30.0764,0,0,1,2.09,11.82v27.16H79.38v-25.83c0-3.54-.74-6.3-2.23-8.26s-3.85-2.94-7.07-2.94a9.9348,9.9348,0,0,0-5.22,1.42,9.7237,9.7237,0,0,0-3.7,4.04,13.4972,13.4972,0,0,0-1.33,6.22v25.35H45.58Z" transform="translate(0 -10.4834)" style="fill:#121827"/><path d="M121.73,81.6534a22.7292,22.7292,0,0,1-9.92-1.9,12.709,12.709,0,0,1-5.79-5.18,14.5463,14.5463,0,0,1-1.85-7.26,13.4784,13.4784,0,0,1,2.14-7.55,14.4974,14.4974,0,0,1,6.69-5.22,29.3577,29.3577,0,0,1,11.49-1.95h11.58a14.9219,14.9219,0,0,0-.81-5.32,5.9724,5.9724,0,0,0-2.61-3.13,9.8342,9.8342,0,0,0-4.94-1.04,10.8981,10.8981,0,0,0-5.6,1.33,5.9257,5.9257,0,0,0-2.85,4.18H105.59a17.0471,17.0471,0,0,1,3.37-8.93,19.6262,19.6262,0,0,1,7.74-5.98,26.7,26.7,0,0,1,11.11-2.18,29.0664,29.0664,0,0,1,11.87,2.23,17.7084,17.7084,0,0,1,7.83,6.5,18.97,18.97,0,0,1,2.8,10.63v29.63H138.44l-1.71-6.93a16.99,16.99,0,0,1-2.47,3.28,14.9011,14.9011,0,0,1-3.32,2.56,16.2255,16.2255,0,0,1-4.18,1.66A20.7588,20.7588,0,0,1,121.73,81.6534Zm3.51-10.82a9.696,9.696,0,0,0,3.99-.76,8.8532,8.8532,0,0,0,2.94-2.09,11.6886,11.6886,0,0,0,2.04-3.09,16.1889,16.1889,0,0,0,1.19-3.85v-.1h-9.21a10.8532,10.8532,0,0,0-3.94.62,4.8456,4.8456,0,0,0-2.33,1.76,4.6643,4.6643,0,0,0-.76,2.66,4.4242,4.4242,0,0,0,.81,2.71,4.6876,4.6876,0,0,0,2.18,1.61,8.6371,8.6371,0,0,0,3.09.52h0Z" transform="translate(0 -10.4834)" style="fill:#121827"/><path d="M325.95,34.6534a24.7549,24.7549,0,0,0-12.63-3.13,25.4088,25.4088,0,0,0-13.01,3.32,23.302,23.302,0,0,0-8.74,9.12,27.2747,27.2747,0,0,0-3.13,13.2,24.9,24.9,0,0,0,3.18,12.77,22.4394,22.4394,0,0,0,8.78,8.64,26.4879,26.4879,0,0,0,13.01,3.09,24.2622,24.2622,0,0,0,10.26-2.14,23.2784,23.2784,0,0,0,7.88-5.79,21.3671,21.3671,0,0,0,4.56-8.21H321.58a9.3205,9.3205,0,0,1-3.18,3.28,9.629,9.629,0,0,1-5.18,1.28,11.0837,11.0837,0,0,1-5.74-1.42,9.3918,9.3918,0,0,1-3.7-3.99,12.3951,12.3951,0,0,1-1.22-4.56h34.69a22.7778,22.7778,0,0,0,.24-2.42c.03-.79.05-1.5.05-2.14a24.3969,24.3969,0,0,0-3.09-12.39,22.81,22.81,0,0,0-8.5-8.5h0Zm-23.07,17.19a12.396,12.396,0,0,1,1.08-3.13,10.1027,10.1027,0,0,1,3.94-4.27,10.8209,10.8209,0,0,1,5.51-1.42,9.6706,9.6706,0,0,1,6.69,2.42,8.8029,8.8029,0,0,1,2.9,6.41H302.88Z" transform="translate(0 -10.4834)" style="fill:#121827"/><polygon points="369.91 51.33 356.71 22.18 341.23 22.18 360.51 64.72 363.36 64.72 351.87 90.92 366.97 90.92 396.21 22.18 380.92 22.18 369.91 51.33" style="fill:#121827"/><path d="M440.56,57.8734a14.8707,14.8707,0,0,0-6.6-4.13,90.8857,90.8857,0,0,0-10.02-2.66c-2.03-.44-3.74-.89-5.13-1.33a9.4029,9.4029,0,0,1-3.18-1.57,2.6047,2.6047,0,0,1-1.09-2.04,3.1541,3.1541,0,0,1,1.61-2.75,8.7864,8.7864,0,0,1,4.75-1.04,9.298,9.298,0,0,1,4.56,1,4.7708,4.7708,0,0,1,2.37,2.9h13.29a15.8489,15.8489,0,0,0-6.08-10.73q-5.13-3.99-14.15-3.99a25.97,25.97,0,0,0-10.83,2.04,16.23,16.23,0,0,0-6.84,5.51,13.4,13.4,0,0,0-2.37,7.74,10.6344,10.6344,0,0,0,1.57,5.93,12.1677,12.1677,0,0,0,4.18,3.94,27.5084,27.5084,0,0,0,5.98,2.52q3.375.99,6.79,1.76,2.94.57,5.03,1.19a8.4151,8.4151,0,0,1,3.18,1.57,3.4355,3.4355,0,0,1,1.09,2.75,3.612,3.612,0,0,1-.76,2.18,5.1011,5.1011,0,0,1-2.23,1.66,10.0921,10.0921,0,0,1-3.85.62,10.4772,10.4772,0,0,1-3.94-.71,6.5158,6.5158,0,0,1-2.75-1.99,7.56,7.56,0,0,1-1.38-2.9H399.61a15.6684,15.6684,0,0,0,3.18,8.36,18.8261,18.8261,0,0,0,7.69,5.84,28.99,28.99,0,0,0,11.63,2.14,26.9256,26.9256,0,0,0,11.11-2.04,16.6024,16.6024,0,0,0,7.17-5.65,13.5964,13.5964,0,0,0,2.42-8.26q.09-5.13-2.28-7.83Z" transform="translate(0 -10.4834)" style="fill:#121827"/><polygon points="264.79 44.23 283.6 22.18 266.79 22.18 251.31 41.25 251.31 1.67 237.07 1.67 237.07 20.85 238.64 22.18 241.35 26.06 243.13 30.38 243.91 35.57 243.57 39.55 242.36 43.62 239.76 48.23 237.07 51 237.07 70.03 251.31 70.03 251.31 46.6 268.97 70.03 286.63 70.03 264.79 44.23" style="fill:#121827"/><path d="M169.49,27.1534a9.084,9.084,0,0,0,6.31-2.18,7.1169,7.1169,0,0,0,2.42-5.51,7.29,7.29,0,0,0-2.42-5.6,9.0368,9.0368,0,0,0-6.31-2.18,8.6755,8.6755,0,0,0-6.17,2.18,7.2765,7.2765,0,0,0-2.37,5.6,7.0862,7.0862,0,0,0,2.37,5.51A8.7312,8.7312,0,0,0,169.49,27.1534Z" transform="translate(0 -10.4834)" style="fill:#121827"/><polygon points="172.82 57.24 176.61 56.82 176.61 22.18 162.37 22.18 162.37 70.03 166.07 70.03 165.44 67.63 167.45 64.8 174.37 64.01 174.46 63.86 172.82 57.24" style="fill:#121827"/><path d="M203.98,61.5834l-.19.01a18.1338,18.1338,0,0,1-2.33.15,19.2312,19.2312,0,0,1-2.62-.18l-.15-.02h-.13a1.6649,1.6649,0,0,0-1.37.71l-17.68,24.88-9.75.78-2.48-9.48,1.11-1.57,6.11-.7a1.6924,1.6924,0,0,0,1.52-2.07l-1.12-4.92,5.05-.58a1.69,1.69,0,0,0,1.18-.71,1.6325,1.6325,0,0,0,.26-1.34l-1.36-6.06,4.94-6.94a1.6712,1.6712,0,0,0,.12-1.76,18.4219,18.4219,0,0,1,16.3-26.89,18.9162,18.9162,0,0,1,4.53.56,1.7322,1.7322,0,0,0,2.04-1.23,1.675,1.675,0,0,0-.19-1.31,1.7337,1.7337,0,0,0-1.04-.77,21.8094,21.8094,0,0,0-25.1,30.25l-4.8,6.75a1.67,1.67,0,0,0-.26,1.34l1.11,4.95-4.98.57a1.6681,1.6681,0,0,0-1.26.72,1.6481,1.6481,0,0,0-.26,1.35l1.12,4.92-5.06.58a1.6846,1.6846,0,0,0-1.16.7l-2.01,2.83a1.7385,1.7385,0,0,0-.27,1.42l3.03,11.6a1.68,1.68,0,0,0,1.64,1.29h.58l.56-.06v-.03l11-.89a1.7521,1.7521,0,0,0,1.2-.71l17.56-24.71a20.58,20.58,0,0,0,2.08.1,23.4222,23.4222,0,0,0,2.77-.17,1.6975,1.6975,0,0,0-.25-3.38Z" transform="translate(0 -10.4834)" style="fill:#d11554"/><path d="M224.75,34.8734c-.14,0-.28-.01-.42-.01a6.2935,6.2935,0,0,0-.46,12.57c.15.01.3.01.46.01a6.2876,6.2876,0,0,0,.43-12.56Zm-.7,3.38h.49a2.8941,2.8941,0,0,1-.22,5.78h-.2a2.9,2.9,0,0,1-.06-5.78Z" transform="translate(0 -10.4834)" style="fill:#d11554"/><path d="M236.79,28.8634a1.7021,1.7021,0,0,0-2.02,2.74,18.3994,18.3994,0,0,1-3.77,31.71,1.6781,1.6781,0,0,0-.98,1.43l-2.11,30.43-7.91,5.78-7.04-6.82.13-1.92,4.81-3.77a1.6538,1.6538,0,0,0,.71-1.26,1.68,1.68,0,0,0-.48-1.29l-3.52-3.63,3.93-3.08a1.66,1.66,0,0,0,.7-1.26,1.68,1.68,0,0,0-.48-1.29l-4.3-4.44.59-8.52a1.6969,1.6969,0,0,0-.81-1.54,18.3988,18.3988,0,0,1,9.47-34.15c.44,0,.88.02,1.32.05a14.32,14.32,0,0,1,2.33.28,11.566,11.566,0,0,1-.85,2.44,1.7067,1.7067,0,0,0-.03,1.33,1.6917,1.6917,0,0,0,3.12.07c.18-.39.34-.78.5-1.18.15-.4.28-.81.39-1.22.12-.41.21-.83.29-1.25s.14-.84.18-1.26.07-.85.07-1.28,0-.86-.03-1.29-.08-.86-.14-1.28a15.3,15.3,0,0,0-15.03-12.91,15.7887,15.7887,0,0,0-2.28.17,15.0027,15.0027,0,0,0-8.45,4.27,1.6971,1.6971,0,0,0,2.3823,2.4176l.0177-.0176a11.6459,11.6459,0,0,1,6.56-3.32,11.7691,11.7691,0,0,1,13.4392,9.8191l.0108.0709c.05.33.09.66.11,1a19.6574,19.6574,0,0,0-2.36-.26c-.51-.04-1.02-.05-1.53-.05a21.8143,21.8143,0,0,0-12.15,39.91l-.57,8.25v.11a.7622.7622,0,0,0,.04.25,1.5861,1.5861,0,0,0,.08.36l.07.15.03.05a1.1753,1.1753,0,0,0,.2.32l.08.08h.02l3.47,3.6-3.97,3.1-.07.06-.03.02-.06.06a.5584.5584,0,0,0-.13.18,1.6045,1.6045,0,0,0-.19.29,1.9516,1.9516,0,0,0-.1.29,1.0183,1.0183,0,0,0-.07.24v.13l-.01.08a1.0249,1.0249,0,0,0,.04.27,1.8528,1.8528,0,0,0,.05.25.91.91,0,0,0,.15.3l.06.13a.954.954,0,0,0,.11.13l.02.04,3.57,3.69-3.96,3.09-.09.07-.02.03a2.7409,2.7409,0,0,0-.23.27.8818.8818,0,0,0-.12.17,1.1344,1.1344,0,0,0-.13.38.598.598,0,0,0-.06.2v.02l-.25,3.55a1.7157,1.7157,0,0,0,.51,1.32l8.62,8.35a1.6629,1.6629,0,0,0,1.19.49h.01a1.7092,1.7092,0,0,0,1-.33l9.72-7.1a1.7057,1.7057,0,0,0,.67-1.24l2.1-30.22a21.8006,21.8006,0,0,0,3.44-37.12Z" transform="translate(0 -10.4834)" style="fill:#d11554"/><path d="M474.0782,81.5991V33.2153h12.5752l1.2481,6.24a16.8273,16.8273,0,0,1,6.0966-5.376,18.4337,18.4337,0,0,1,8.7833-2.0161,21.2739,21.2739,0,0,1,6.4326.9121,15.5232,15.5232,0,0,1,5.0879,2.688,14.3467,14.3467,0,0,1,3.6474,4.4639,19.6666,19.6666,0,0,1,7.1045-5.9039,20.7378,20.7378,0,0,1,9.4082-2.16,20.5251,20.5251,0,0,1,10.8,2.5923,15.814,15.814,0,0,1,6.3838,7.4878,30.0259,30.0259,0,0,1,2.1123,11.9043V81.5991H539.4542V55.2949q0-5.2785-2.0644-8.208-2.0655-2.9268-6.5762-2.9277a9.104,9.104,0,0,0-5.0879,1.44,9.3875,9.3875,0,0,0-3.4082,4.0322,14.7533,14.7533,0,0,0-1.2,6.24v25.728H506.8136V55.2949q0-5.2785-2.1123-8.208-2.1123-2.9268-6.8155-2.9277a8.541,8.541,0,0,0-4.8476,1.44,9.5135,9.5135,0,0,0-3.36,4.0322,14.7548,14.7548,0,0,0-1.2,6.24v25.728Z" transform="translate(0 -10.4834)" style="fill:#e70853"/><path d="M588.9884,82.751a24.4061,24.4061,0,0,1-12.5752-3.2637,23.9972,23.9972,0,0,1-8.832-8.9761,25.737,25.737,0,0,1-3.2647-13.0083,26.1293,26.1293,0,0,1,3.2647-13.2,23.911,23.911,0,0,1,8.88-8.9761,25.9491,25.9491,0,0,1,25.1993,0,24.03,24.03,0,0,1,8.832,8.9761,25.9458,25.9458,0,0,1,3.2646,13.104,25.9392,25.9392,0,0,1-3.2646,13.104,24.0119,24.0119,0,0,1-8.832,8.9761A24.5989,24.5989,0,0,1,588.9884,82.751Zm0-12.48a9.345,9.345,0,0,0,5.1367-1.44,9.9434,9.9434,0,0,0,3.6-4.32,16.7549,16.7549,0,0,0,1.3438-7.104,16.76,16.76,0,0,0-1.3438-7.104,10.0766,10.0766,0,0,0-3.5517-4.32,9.1079,9.1079,0,0,0-5.0879-1.44,9.34,9.34,0,0,0-5.1368,1.44,9.9286,9.9286,0,0,0-3.6,4.32,16.7307,16.7307,0,0,0-1.3437,7.104,16.726,16.726,0,0,0,1.3437,7.104,9.924,9.924,0,0,0,3.6,4.32A9.1686,9.1686,0,0,0,588.9884,70.271Z" transform="translate(0 -10.4834)" style="fill:#e70853"/><path d="M645.5333,81.5991a24.045,24.045,0,0,1-9.3125-1.68,12.6236,12.6236,0,0,1-6.24-5.52q-2.2091-3.8379-2.208-10.4638v-18.72h-8.2559v-12h8.2559l1.5361-13.6323H642.173V33.2153h12.3837v12H642.173V64.127q0,2.8806,1.2959,4.08,1.2963,1.202,4.4638,1.2h6.624V81.5991Z" transform="translate(0 -10.4834)" style="fill:#e70853"/><path d="M687.6759,82.751a24.4061,24.4061,0,0,1-12.5752-3.2637,23.9972,23.9972,0,0,1-8.832-8.9761,25.737,25.737,0,0,1-3.2647-13.0083,26.1293,26.1293,0,0,1,3.2647-13.2,23.911,23.911,0,0,1,8.88-8.9761,25.9491,25.9491,0,0,1,25.1993,0,24.03,24.03,0,0,1,8.832,8.9761,25.9458,25.9458,0,0,1,3.2646,13.104,25.9392,25.9392,0,0,1-3.2646,13.104,24.0119,24.0119,0,0,1-8.832,8.9761A24.5989,24.5989,0,0,1,687.6759,82.751Zm0-12.48a9.345,9.345,0,0,0,5.1367-1.44,9.9434,9.9434,0,0,0,3.6-4.32,16.7549,16.7549,0,0,0,1.3438-7.104,16.76,16.76,0,0,0-1.3438-7.104,10.0766,10.0766,0,0,0-3.5517-4.32,9.1079,9.1079,0,0,0-5.0879-1.44,9.34,9.34,0,0,0-5.1368,1.44,9.9286,9.9286,0,0,0-3.6,4.32,16.7307,16.7307,0,0,0-1.3437,7.104,16.726,16.726,0,0,0,1.3437,7.104,9.924,9.924,0,0,0,3.6,4.32A9.1686,9.1686,0,0,0,687.6759,70.271Z" transform="translate(0 -10.4834)" style="fill:#e70853"/><path d="M723.4835,81.5991V33.2153h12.7676l1.3437,8.8321a22.6471,22.6471,0,0,1,4.5127-5.28,19.5042,19.5042,0,0,1,6-3.4561,21.2064,21.2064,0,0,1,7.3438-1.248V47.3271h-4.8a20.4167,20.4167,0,0,0-5.2325.6241,10.0653,10.0653,0,0,0-4.0322,2.0639,9.2366,9.2366,0,0,0-2.5918,3.8882,17.5957,17.5957,0,0,0-.9121,6.0957v21.6Z" transform="translate(0 -10.4834)" style="fill:#e70853"/><path d="M783.964,82.751a29.2318,29.2318,0,0,1-11.7608-2.16,19.0541,19.0541,0,0,1-7.7754-5.9043,15.8515,15.8515,0,0,1-3.2158-8.4477h14.3037a7.4918,7.4918,0,0,0,1.3916,2.9277,6.5413,6.5413,0,0,0,2.7842,2.0161,10.5144,10.5144,0,0,0,3.9844.72,10.1723,10.1723,0,0,0,3.8877-.624,5.172,5.172,0,0,0,2.2558-1.68,3.7016,3.7016,0,0,0,.7686-2.208,3.4952,3.4952,0,0,0-1.1045-2.7842,8.648,8.648,0,0,0-3.2158-1.584q-2.1123-.6233-5.0879-1.2-3.4571-.7675-6.8643-1.7758a27.4573,27.4573,0,0,1-6.0478-2.5445,12.2962,12.2962,0,0,1-4.2237-3.9839,10.8089,10.8089,0,0,1-1.5839-6,13.53,13.53,0,0,1,2.3994-7.8237,16.3787,16.3787,0,0,1,6.9121-5.5683,26.2,26.2,0,0,1,10.9443-2.064q9.1186,0,14.3037,4.0322a16.0234,16.0234,0,0,1,6.1436,10.8482H789.7237a4.84,4.84,0,0,0-2.4-2.9283,9.446,9.446,0,0,0-4.6074-1.0078,8.9093,8.9093,0,0,0-4.8008,1.0557,3.1938,3.1938,0,0,0-1.6318,2.7842,2.6456,2.6456,0,0,0,1.1045,2.0639,9.631,9.631,0,0,0,3.2158,1.584q2.1108.6731,5.1836,1.3443a92.2912,92.2912,0,0,1,10.1279,2.6879,15.03,15.03,0,0,1,6.6729,4.1758q2.3979,2.7363,2.3037,7.92a13.7444,13.7444,0,0,1-2.4482,8.3521,16.7931,16.7931,0,0,1-7.2481,5.7119A27.8346,27.8346,0,0,1,783.964,82.751Z" transform="translate(0 -10.4834)" style="fill:#e70853"/></g></g></svg>